<?xml version="1.0" encoding="utf-8"?>
<!-- Generator: Adobe Illustrator 16.0.0, SVG Export Plug-In . SVG Version: 6.00 Build 0)  -->
<!DOCTYPE svg PUBLIC "-//W3C//DTD SVG 1.1//EN" "http://www.w3.org/Graphics/SVG/1.1/DTD/svg11.dtd">
<svg version="1.1" id="Layer_1" xmlns="http://www.w3.org/2000/svg" xmlns:xlink="http://www.w3.org/1999/xlink" x="0px" y="0px"
	 width="48px" height="48px" viewBox="0 0 48 48" enable-background="new 0 0 48 48" xml:space="preserve">
<g id="Expanded">
	<g>
		<g>
			<path fill="#FFFFFF" d="M23,48.049c-0.147,0-0.294-0.031-0.43-0.097l-21-10C1.222,37.786,1,37.436,1,37.049v-31
				c0-0.343,0.176-0.662,0.466-0.846C1.755,5.02,2.12,4.999,2.43,5.146L23,14.941l20.57-9.796c0.31-0.146,0.673-0.126,0.963,0.058
				C44.824,5.387,45,5.706,45,6.049v31c0,0.387-0.223,0.737-0.57,0.903l-21,10C23.294,48.018,23.147,48.049,23,48.049z M3,36.417
				l20,9.524l20-9.524V7.633l-19.57,9.319c-0.271,0.129-0.588,0.129-0.859,0L3,7.633V36.417z"/>
		</g>
		<g>
			<path fill="#FFFFFF" d="M23,12.204L5.567,3.903C5.068,3.665,4.857,3.068,5.094,2.57c0.238-0.499,0.834-0.708,1.333-0.474
				L23,9.989l16.573-7.893c0.5-0.234,1.095-0.025,1.333,0.474c0.236,0.498,0.025,1.095-0.473,1.333L23,12.204z"/>
		</g>
		<g>
			<rect x="22" y="16.049" fill="#FFFFFF" width="2" height="31"/>
		</g>
	</g>
</g>
</svg>
